<?xml version="1.0" encoding="utf-8"?>
<!-- Generator: Adobe Illustrator 28.0.0, SVG Export Plug-In . SVG Version: 6.00 Build 0)  -->
<svg version="1.1" id="Layer_1" xmlns="http://www.w3.org/2000/svg" xmlns:xlink="http://www.w3.org/1999/xlink" x="0px" y="0px"
	 viewBox="0 0 508.7 446.7" style="enable-background:new 0 0 508.7 446.7;" xml:space="preserve">
<style type="text/css">
	.st0{fill:#5551EC;}
</style>
<g>
	<g>
		<g>
			<path class="st0" d="M33.9,446.7c-6.4,0-12.2-1.2-17.2-3.7c-5.1-2.5-9.1-5.8-12.2-10.1c-3-4.2-4.5-9-4.5-14.2
				c0-8.6,3.5-15.4,10.4-20.3c7-5,16.1-8.4,27.5-10.2l23.8-3.4v-3.3c0-4.7-1.1-8.4-3.3-10.9c-2.2-2.5-6-3.8-11.4-3.8
				c-4,0-7.2,0.8-9.6,2.4c-2.4,1.6-4.3,3.6-5.6,6.2c-1,1.6-2.4,2.4-4.2,2.4H10.3c-1.3,0-2.4-0.4-3.1-1.2c-0.7-0.8-1-1.7-0.9-2.8
				c0-2.1,0.8-4.5,2.4-7.3c1.6-2.8,4-5.5,7.3-8.3c3.3-2.7,7.4-5,12.5-6.8c5.1-1.8,11.3-2.7,18.7-2.7c7.6,0,14.2,0.9,19.6,2.7
				c5.4,1.8,9.8,4.4,13.1,7.6c3.3,3.3,5.7,7.1,7.3,11.3c1.6,4.3,2.4,8.9,2.4,13.9v56.1c0,1.3-0.4,2.4-1.3,3.3
				c-0.8,0.8-1.9,1.3-3.3,1.3H67.2c-1.2,0-2.2-0.4-3.1-1.3c-0.8-0.8-1.3-1.9-1.3-3.3v-6.7c-1.6,2.3-3.7,4.4-6.4,6.4
				c-2.7,2-5.8,3.6-9.5,4.8C43.2,446.1,38.9,446.7,33.9,446.7z M41.2,427.8c4,0,7.6-0.8,10.7-2.5c3.1-1.7,5.6-4.3,7.4-7.8
				c1.8-3.5,2.7-7.9,2.7-13.3v-3.1l-16.9,2.7c-6.5,1.1-11.3,2.7-14.3,4.9c-3,2.2-4.5,4.8-4.5,8c0,2.3,0.7,4.3,2.1,6
				c1.4,1.7,3.2,3,5.5,3.8C36.2,427.4,38.7,427.8,41.2,427.8z"/>
			<path class="st0" d="M139.2,446.7c-6.4,0-12.2-1.2-17.2-3.7c-5.1-2.5-9.1-5.8-12.2-10.1c-3-4.2-4.5-9-4.5-14.2
				c0-8.6,3.5-15.4,10.4-20.3c7-5,16.1-8.4,27.5-10.2l23.8-3.4v-3.3c0-4.7-1.1-8.4-3.3-10.9c-2.2-2.5-6-3.8-11.4-3.8
				c-4,0-7.2,0.8-9.6,2.4c-2.4,1.6-4.3,3.6-5.6,6.2c-1,1.6-2.4,2.4-4.2,2.4h-17.2c-1.3,0-2.4-0.4-3.1-1.2c-0.7-0.8-1-1.7-0.9-2.8
				c0-2.1,0.8-4.5,2.4-7.3c1.6-2.8,4-5.5,7.3-8.3c3.3-2.7,7.4-5,12.5-6.8c5.1-1.8,11.3-2.7,18.7-2.7c7.6,0,14.2,0.9,19.6,2.7
				c5.4,1.8,9.8,4.4,13.1,7.6c3.3,3.3,5.7,7.1,7.3,11.3c1.6,4.3,2.4,8.9,2.4,13.9v56.1c0,1.3-0.4,2.4-1.3,3.3
				c-0.8,0.8-1.9,1.3-3.3,1.3h-17.8c-1.2,0-2.2-0.4-3.1-1.3c-0.8-0.8-1.3-1.9-1.3-3.3v-6.7c-1.6,2.3-3.7,4.4-6.4,6.4
				c-2.7,2-5.8,3.6-9.5,4.8C148.5,446.1,144.2,446.7,139.2,446.7z M146.5,427.8c4,0,7.6-0.8,10.7-2.5c3.1-1.7,5.6-4.3,7.4-7.8
				c1.8-3.5,2.7-7.9,2.7-13.3v-3.1l-16.9,2.7c-6.5,1.1-11.3,2.7-14.3,4.9c-3,2.2-4.5,4.8-4.5,8c0,2.3,0.7,4.3,2.1,6
				c1.4,1.7,3.2,3,5.5,3.8C141.5,427.4,144,427.8,146.5,427.8z"/>
			<path class="st0" d="M241.6,444.8c-1.7,0-3-0.4-3.9-1.3c-0.9-0.8-1.6-1.9-2.1-3.3l-26-84.1c-0.2-0.6-0.4-1.2-0.4-1.8
				c0-1.1,0.4-2,1.2-2.8c0.8-0.8,1.7-1.2,2.8-1.2h16c1.6,0,2.8,0.4,3.6,1.3c0.8,0.8,1.4,1.6,1.6,2.4l16.5,56.1l17.6-55.7
				c0.2-0.8,0.8-1.7,1.7-2.6c0.9-0.9,2.2-1.4,3.9-1.4h10.3c1.7,0,3,0.5,3.9,1.4c0.9,0.9,1.5,1.8,1.7,2.6l17.6,55.7l16.5-56.1
				c0.1-0.7,0.6-1.5,1.5-2.4c0.9-0.8,2.1-1.3,3.5-1.3h16c1.1,0,2,0.4,2.8,1.2c0.8,0.8,1.2,1.7,1.2,2.8c0,0.6-0.1,1.2-0.2,1.8
				l-26.1,84.1c-0.4,1.3-1,2.4-1.9,3.3c-0.9,0.8-2.2,1.3-3.9,1.3h-14c-1.7,0-3-0.4-4-1.3c-1-0.8-1.7-1.9-2.2-3.3l-17.6-53.7
				l-18,53.7c-0.4,1.3-1,2.4-2,3.3c-1,0.8-2.3,1.3-4,1.3H241.6z"/>
			<path class="st0" d="M370.5,444.8c-1.2,0-2.2-0.4-3.1-1.3c-0.8-0.8-1.3-1.9-1.3-3.3V355c0-1.3,0.4-2.4,1.3-3.3
				c0.8-0.8,1.9-1.3,3.1-1.3h17.8c1.3,0,2.4,0.4,3.3,1.3c0.8,0.8,1.3,1.9,1.3,3.3v7.1c3.1-3.9,7.2-7.1,12.2-9.6
				c5-2.5,11-3.8,18.2-3.8c7.1,0,13.4,1.6,18.8,4.8c5.4,3.2,9.6,7.9,12.7,14c3.1,6.1,4.6,13.5,4.6,22.2v50.6c0,1.3-0.5,2.4-1.4,3.3
				c-0.9,0.8-2,1.3-3.2,1.3h-19.2c-1.3,0-2.4-0.4-3.3-1.3c-0.8-0.8-1.3-1.9-1.3-3.3v-49.6c0-6.4-1.5-11.4-4.6-15
				c-3.1-3.6-7.6-5.4-13.5-5.4c-5.7,0-10.2,1.8-13.6,5.4c-3.4,3.6-5.1,8.6-5.1,15v49.6c0,1.3-0.4,2.4-1.3,3.3
				c-0.8,0.8-1.9,1.3-3.1,1.3H370.5z"/>
			<path class="st0" d="M484.9,335.9c-1.2,0-2.2-0.4-3.1-1.3c-0.8-0.8-1.3-1.9-1.3-3.3v-14.5c0-1.3,0.4-2.5,1.3-3.4
				c0.8-0.9,1.9-1.4,3.1-1.4h19.1c1.3,0,2.5,0.5,3.4,1.4c0.9,0.9,1.4,2,1.4,3.4v14.5c0,1.3-0.5,2.4-1.4,3.3c-0.9,0.8-2,1.3-3.4,1.3
				H484.9z M485.4,444.8c-1.2,0-2.2-0.4-3.1-1.3c-0.8-0.8-1.3-1.9-1.3-3.3V355c0-1.3,0.4-2.4,1.3-3.3c0.8-0.8,1.9-1.3,3.1-1.3h18.2
				c1.3,0,2.4,0.4,3.3,1.3c0.8,0.8,1.3,1.9,1.3,3.3v85.3c0,1.3-0.4,2.4-1.3,3.3c-0.8,0.8-1.9,1.3-3.3,1.3H485.4z"/>
		</g>
		<g>
			<path class="st0" d="M342.1,141.6c5.2-1.2,11.2-0.7,12.7,5.1c0.8,3.2-1.1,6.3-3.6,8.2c-2.7,1.9-6.1,2.8-9.1,4.3
				c-9.1,4.5-14.4,14.3-17.7,23.9c-2.9,8.3-4.7,17-8.7,24.8c-4,7.9-8,15.5-13.5,22.6c-1.8,2.3-3.6,4.6-5.6,6.8
				c-4.6,5.2-9.8,9.9-15.4,14c-2.7,2-5.9,3.6-8.3,5.8c-2.4,2.2-5.3,3.3-8.3,4.5c-9.3,3.7-19,6.2-28.9,7.3c-2.2,0.3-4.1,0.8-6.4,0.8
				c-2.6,0.1-5.3,0-7.9-0.1c-5.2-0.3-10.3-0.9-15.4-1.9c-13.8-2.8-26.8-7.2-36.4-18.1c-11-12.6-14.7-28.8-15.6-45
				c-0.7-14.5-0.1-29.3-3.8-43.5c-3.5-13.5-12.6-24.4-22.2-34.3c-7.7-7.9-14.1-18.3-20-27.6c-4.9-7.8-6.1-17.8-3.6-26.6
				c2.1-7.6,8.8-15.4,16.9-16.7c5-0.8,10.2,0.6,14.7,3c4.5,2.4,8.4,5.9,12,9.4c5.5,5.2,10.6,10.7,15.5,16.5c1.4,1.9,3.1,3.7,4.5,5.6
				c1.4,1.9,2.6,3.9,4,5.9c2.8,4,5.8,7.9,9,11.6c0.4,0.5,1.1,1.1,1.7,0.8c-0.5-2.7-1.6-5.4-2.6-8.1c-1-2.7-2.1-5.4-3.2-8.1
				c-1.9-4.6-3.9-9.1-6.3-13.5c-0.6-1.1-1-2.6-1.4-3.8c-0.5-1.3-0.9-2.5-1.4-3.8c-0.9-2.5-1.8-5-2.8-7.5c-1-2.5-1.9-5.1-2.9-7.6
				c-0.9-2.4-1.6-4.8-2.5-7.2c-0.3-0.8-0.4-1.6-0.7-2.3c-0.3-0.8-0.6-1.5-0.9-2.2c-0.4-1.2-0.8-2.4-1.1-3.7
				c-0.3-1.3-0.6-2.6-0.7-3.9c-0.1-1.1-0.3-2.6,0-3.7c0.3-1.1,0.4-2.4,0.6-3.5c0.3-1.2,0.7-2.5,1.1-3.6c5.1-12.2,21.8-15.3,32.3-8.3
				c5.8,3.9,9.3,9.9,12.5,16c3.4,6.3,5.9,13.1,8.1,19.9c2.2,6.9,4,13.9,5.6,21c0.6,2.6,1.2,5.2,1.8,7.8c0.6,2.6,1.2,5.2,1.8,7.8
				c0.2,1.1,0.4,2.2,0.8,3.3c0.4,1,0.5,2.1,0.9,3.1c0.1,0.2,0.3,0.5,0.5,0.5c0.2,0,0.4-0.1,0.5-0.3c0.1-0.2,0.1-0.4,0.1-0.6
				c0.1-3,0.1-6,0-9c0-1.4-0.1-2.7-0.1-4.1c-0.1-2.7-0.2-5.4-0.4-8.1s-0.3-5.4-0.5-8.1c-0.1-1.1-0.2-2.2-0.3-3.3
				c-0.6-7.6-1.7-15.1-1.5-22.7c0-0.9,0.1-1.7,0.1-2.5c-0.1-6.7-0.3-13.5,1-20c0.8-4.5,2.4-8.9,4.9-12.3c7.2-9.9,21-7.5,27.3,2.6
				c2,3.2,3.3,7,4.3,10.9c2.5,9.3,3.3,18.5,3.6,28.2c0.4,10.3-0.7,20.9-1.3,31.2c-0.1,2.6-0.3,5.2-0.5,7.7c-0.4,3.7-0.7,7.3-1.1,11
				c-0.3,2.8-0.6,5.6-0.8,8.4c-0.3,3.2-1.5,6.7-5,7.7c-2.5,0.7-5.5-0.5-6.7-2.9c-1-2-0.8-4.7-0.1-6.8c0.8-2.4,1.1-5.1,1.5-7.7
				c0.8-5,1.4-10.1,1.8-15.2c0.9-10.1,1.3-20.2,1.4-30.4c0.1-9.1,0-18.3-1.7-27.2c-0.7-3.6-1.7-7.3-4.1-9.7
				c-2.4-2.4-5.9-2.9-8.7-1.2c-2.3,1.4-4,4.3-4.4,7.5c-0.2,1.6-0.1,3.1-0.3,4.7c-0.3,1.9-0.5,3.8-0.6,5.8
				c-0.6,7.8-0.3,15.6,0.1,23.4c0.2,5.1,0.4,10.1,0.6,15.2c0.1,2.4,0.2,4.8,0.3,7.2c0.3,8,0.5,16,0,24c-0.3,3.9-0.8,7.8-1.7,11.6
				c-0.2,0.9-0.5,1.9-1,2.7c-1.5,2.3-5,2.2-7.3,1.3c-1.7-0.7-3.1-2.1-4.2-3.7c-1-1.6-1.8-3.3-2.4-5.1c-0.5-1.3-1-2.5-1.4-3.8
				c-1.3-3.7-2.5-7.4-3.5-11.1c-0.5-1.9-1-3.8-1.5-5.7c-0.4-1.7-0.5-3.7-1.3-5.2c-0.8-1.6-1.1-3.6-1.5-5.4c-0.5-1.9-1.1-3.8-1.6-5.7
				c-1.1-3.8-2.3-7.5-3.5-11.3c-2.8-8.6-5.9-17.3-10.7-25c-2-3.1-4.4-6.3-7.8-7.6c-3.5-1.3-7.8-0.4-10.4,2.3
				c-5,5.1-2.2,13.3-0.7,19.2c1,3.7,2.2,7.4,3.5,11c0.7,1.8,1.4,3.6,2.1,5.4c0.7,1.7,1.8,3.4,2.3,5.2c1.6,4.9,3.7,9.7,5.6,14.5
				c0.9,2.2,1.8,4.4,2.7,6.7c2.4,6.1,4.7,12.2,6.6,18.5c1.7,6,3.6,12.2,2.1,18.4c-0.4,1.7-1.2,3.5-2.8,4c-1.7,0.5-3.5-0.6-4.9-1.8
				c-2.3-1.8-4.5-3.8-6.7-5.7c-5.3-4.8-10.3-10-14.9-15.6c-4.7-5.6-9-11.5-13.7-17.1c-4.6-5.4-9.6-10.4-15.4-14.5
				c-3.2-2.2-6.8-4.2-10.6-4.5c-3.9-0.3-8.1,1.2-10,4.6c-1.3,2.4-1.3,5.3-0.6,8c1.3,4.9,4.7,8.6,7.6,12.6c3.1,4.3,6.4,8.5,9.7,12.6
				c6.5,8.2,13.2,16.2,18.9,25.1c5.1,8,9.2,16.7,11.3,26c2.2,9.8,2,20.3,2.7,30.4c0.1,1.8,0.2,3.7,0.4,5.5
				c0.7,10.1,1.3,20.3,4.1,30.1c1.1,3.7,3.7,6.5,6.2,9.5c2.8,3.4,6,6.5,9.5,9c2,1.4,4.1,2.7,6.3,3.8c0.9,0.5,1.7,1,2.7,1.5
				c4.3,1.8,8.9,3.5,13.7,3.9c2.4,0.2,4.8,0.7,7.2,0.8c2.7,0.2,5.3,0.2,8,0.2c4.9-0.1,9.7-0.4,14.6-1.1c2.4-0.4,4.8-0.8,7.2-1.4
				c1.2-0.3,2.3-0.6,3.4-0.9c0.9-0.2,1.7-0.2,2.6-0.5c8.8-2.9,16.6-8.2,23.4-14.4c6.7-6.1,12.5-13.1,18.2-20.1
				c1.4-1.7,2.5-3.6,3.8-5.5c1.4-2,2.6-4.1,3.8-6.2c2.3-4.2,4.3-8.6,5.8-13.1c1.4-4.1,2.5-8.3,3.1-12.6c0.7-4.9,2-8.9,4.5-13.2
				c1.8-3,3.7-6.2,5.7-9.1c4.1-6,9.7-11.1,16.2-14.4C338.2,142.8,340.1,142.1,342.1,141.6z"/>
			<path class="st0" d="M284.6,149.8c-6.3-0.2-15.9-0.9-21.5-0.3c-15.2,1.8-30.3,9.5-39.5,22.2c-3.3,4.5-6.1,9.6-10.2,10.2
				c-3.5,0.5-5.9-1.1-7.1-4.8c-0.2-0.5-0.2-1.1-0.1-1.7c2.2-11.2,13.4-24.3,23.6-30.4c11.7-7,23.9-10.6,36.6-10.6
				c3.8,0,7.4-0.1,10.7-0.3c4.2-8.8,7.6-20.1,10.4-31.4c1.7-6.8,3.1-13.7,4.4-20.1c0.4-1.8,0.8-3.7,1-5.6c1.3-7.4,2.2-14.8,3.5-22.3
				c0.4-2.1,0.7-4.4-0.2-6.4c-1-2.1-3.3-3.3-4.3-5.4c-1.2-2.5-0.2-5.7,2-7.4c2.2-1.7,5.3-1.9,7.9-1c2.6,0.9,4.7,2.9,6.3,5.2
				c4.9,6.9,3.7,15.5,2.3,23.3c-1.4,7.8-2.8,15.5-4.4,23.3c-3.6,18.4-7.4,36.8-11.4,55.1C293.5,147.2,290.2,150,284.6,149.8z"/>
			<g>
				<path class="st0" d="M357.6,63.3l5.6,2.2c1.5,0.6,2.2,2.3,1.6,3.7L355.3,93c-0.6,1.5-2.3,2.2-3.7,1.6l-5.6-2.2
					c-1.5-0.6-2.2-2.3-1.6-3.7l9.5-23.7C354.4,63.4,356.1,62.7,357.6,63.3z"/>
				<path class="st0" d="M370.3,119.9l-3.2-5.8c-0.6-1.1-0.2-2.6,0.9-3.2l27.1-15.2c1.1-0.6,2.6-0.2,3.2,0.9l4.3,7.7
					c0.7,1.2,0.2,2.7-1.1,3.3l-28.2,13.3C372.3,121.4,370.9,121,370.3,119.9z"/>
				<path class="st0" d="M373.9,143.7c0.2-1.1,1.2-1.8,2.3-1.7l24.5,2.5c2.9,0.3,5,2.9,4.7,5.8l-0.5,4.8c-0.2,2.2-2.3,3.6-4.4,3.2
					l-26.2-6.2c-1.3-0.3-2-1.5-1.7-2.8L373.9,143.7z"/>
			</g>
		</g>
	</g>
</g>
</svg>
